<?xml version="1.0" encoding="utf-8"?>
<!-- Generator: Adobe Illustrator 16.0.0, SVG Export Plug-In . SVG Version: 6.00 Build 0)  -->
<!DOCTYPE svg PUBLIC "-//W3C//DTD SVG 1.1//EN" "http://www.w3.org/Graphics/SVG/1.1/DTD/svg11.dtd">
<svg version="1.1" id="Layer_1" xmlns="http://www.w3.org/2000/svg" xmlns:xlink="http://www.w3.org/1999/xlink" x="0px" y="0px"
	 width="960px" height="960px" viewBox="0 0 960 960" enable-background="new 0 0 960 960" xml:space="preserve">
<path fill="#F5F6F7" d="M753.388,798.206c0,35.141-119.003,63.627-265.801,63.627s-265.801-28.486-265.801-63.627
	c0-35.148,119.003-63.633,265.801-63.633S753.388,763.058,753.388,798.206z"/>
<path fill="#EBD472" d="M739.323,573.147c0,0,40.422-26.087,32.108-26.373c-8.313-0.288-18.348,2.293-18.348,2.293l15.194-18.638
	c0,0,7.741-12.046,0-10.325c-7.739,1.72-21.215,12.327-21.215,12.327l-12.899-11.468c0,0-5.161-6.306-6.594-1.432
	c-1.433,4.872,8.888,28.953,8.888,28.953s-8.888-7.738-14.908-7.166c-6.021,0.573,9.747,24.941,9.747,24.941l4.873,5.16l4.588,2.006
	"/>
<path fill="#5193BF" d="M521.063,520.221c0,0,76.371,120.632,137.109,149.244c60.739,28.613,91.027-152.541,91.027-152.541
	s-2.98,234.406-164.859,265.262C422.463,813.041,521.063,520.221,521.063,520.221z"/>
<path fill="#72ADDE" d="M372.051,713.146c0,0-3.561,46.709-4.385,64.157c-0.824,17.447,25.673,46.887,25.673,46.887l28.493-63.929
	L372.051,713.146z"/>
<path fill="#72ADDE" d="M550.938,711.426c0,0-3.562,46.709-4.387,64.156c-0.822,17.447,25.675,38.287,25.675,38.287l28.493-63.929
	L550.938,711.426z"/>
<path fill="#469AD3" d="M630.386,610.417c0,0-32.952,23.555,27.786,52.168c60.739,28.612,91.027-152.541,91.027-152.541
	s17.822,153.357-145.189,223.069C511.167,772.817,630.386,610.417,630.386,610.417z"/>
<path fill="none" stroke="#000000" stroke-miterlimit="10" d="M689.969,347.771"/>
<path fill="#72ADDE" d="M640.991,561.968c-3.755,73.226-4.515,83.853-4.515,83.853l-2.365,11.826
	c0,79.646-69.961,143.717-153.087,143.717c-83.121,0-120.386-39.822-145.919-115.264l-1.146-2.867c0,0-10.32-36.981-8.601-113.524
	l1.291-88.584l74.571-317.733c25.447-10.813,53.614-16.821,83.245-16.821c30.605,0,59.649,6.409,85.747,17.902l72.214,318.087
	L640.991,561.968z"/>
<path fill="#72ADDE" d="M262.281,206.141c0,0,21.903-10.334,55.666-7.488c33.762,2.845,50.583,43.436,50.583,43.436l-11.24,14.828
	c0,0-26.665-0.759-49.367-11.086C285.22,235.504,262.281,206.141,262.281,206.141z"/>
<path fill="#72ADDE" d="M719.719,206.972c0,0-21.524-11.103-55.365-9.451c-33.842,1.651-52.088,41.623-52.088,41.623l10.711,15.214
	c0,0,26.675,0.185,49.728-9.334C695.757,235.505,719.719,206.972,719.719,206.972z"/>
<polyline fill="#72ADDE" points="426.27,181.544 364.347,137.969 351.733,204.479 294.397,375.339 249.675,397.127 301.277,434.969 
	282.93,469.371 344.853,487.717 "/>
<polyline fill="#72ADDE" points="543.81,183.265 605.732,139.689 618.346,206.2 675.682,377.06 720.404,398.848 668.802,436.689 
	687.148,471.091 625.226,489.438 "/>
<circle fill="#032D44" cx="517.433" cy="435.942" r="18.347"/>
<path fill="#5997C1" d="M430.857,384.325c0,0,12.613-10.32,53.896-9.173c41.281,1.147,47.015,9.173,47.015,9.173l-43.861-51.888
	L430.857,384.325z"/>
<circle fill="#FFFFFF" cx="392.441" cy="328.897" r="44.722"/>
<circle fill="#FFFFFF" cx="578.209" cy="335.777" r="44.722"/>
<path fill="#72ADDE" d="M640.991,484.564c0,0,16.225,40.285,37.555,73.101c29.816,45.868-8.026,88.297-8.026,88.297l-35.549-102.059
	"/>
<path fill="#72ADDE" d="M327.079,483.704c0,0-18.824,49.746-40.155,82.562c-29.815,45.868,8.026,88.297,8.026,88.297l35.548-102.059
	"/>
<circle fill="#032D44" cx="453.79" cy="432.501" r="18.347"/>
<path fill="#6AA9D3" d="M341.699,702.153c0,0,68.803,74.393,136.746,73.963c67.943-0.43,139.756-58.482,139.756-58.482
	s-5.483,11.353-12.148,21.286c-5.456,8.135-11.997,15.007-14.513,16.556c-5.59,3.44-20.21,1.72-28.812,12.04
	c-8.601,10.32-12.47,24.081-12.47,24.081s-36.337,6.882-73.856,7.956c-37.519,1.075-65.9-13.546-65.9-13.546
	s-2.151-15.051-17.201-24.512c-15.051-9.459-24.941-7.31-24.941-7.31l-8.815-15.911L341.699,702.153z"/>
<circle cx="397.888" cy="331.478" r="29.528"/>
<path fill="#BFE2F7" d="M547.248,786.438c0,0,147.926-261.451-70.523-254.571c-218.449,6.88-65.363,252.851-65.363,252.851
	s13.116,17.2,65.041,16.556C528.326,800.628,547.248,786.438,547.248,786.438z"/>
<path fill="#EBD472" d="M622.452,242.496c0,0,9.173-17.201,34.401-22.934c25.229-5.733,64.585-10.871,64.585-10.871
	s-22.563,21.656-47.014,38.051c-24.451,16.394-49.729,9.334-49.729,9.334L622.452,242.496z"/>
<path fill="#EBD472" d="M358.859,241.896c0,0-9.173-17.201-34.401-22.934s-64.585-10.87-64.585-10.87s22.564,21.655,47.015,38.05
	c24.451,16.395,49.728,9.334,49.728,9.334L358.859,241.896z"/>
<path fill="#ACD2E5" d="M388.715,742.288c0,0,26.662,33.256,89.73,33.828c63.069,0.573,85.716-23.509,85.716-23.509l-16.913,33.83
	c0,0-18.346,14.618-67.656,14.333c-49.31-0.286-60.275-8.958-67.8-13.688C405.165,782.916,388.715,742.288,388.715,742.288z"/>
<path fill="none" stroke="#265E9B" stroke-miterlimit="10" d="M481.886,524.125"/>
<path fill="#5997C1" d="M382.693,433.85c0,0-16.217,44.454-9.354,49.03c9.147,6.101,10.978,8.233,23.173,12.197
	c11.053,3.591,21.34,3.659,40.244,0.303c18.905-3.355,21.345-13.259,47.563-14.327h1.689c26.221,1.068,28.659,10.972,47.563,14.327
	c18.903,3.356,29.192,3.288,40.245-0.303c12.193-3.964,14.026-6.097,23.172-12.197c6.864-4.576-5.593-55.336-5.593-55.336
	s61.349,91.735-108.652,91.162C312.744,518.133,382.693,433.85,382.693,433.85z"/>
<path fill="#ACD2E5" d="M451.999,533.747c0,0,22.578-2.739,30.891-2.739c8.313,0,36.981,3.44,36.981,3.44
	s-22.218,1.575-34.832,1.145C472.427,535.164,451.999,533.747,451.999,533.747z"/>
<path fill="#5997C1" d="M640.132,555.947c0,0-5.161-18.921,10.32,3.44s20.067,86.574,20.067,86.574L640.132,555.947z"/>
<path fill="#5997C1" d="M325.681,562.827c0,0,5.16-18.921-10.32,3.44s-20.068,86.574-20.068,86.574L325.681,562.827z"/>
<path fill="#5997C1" d="M249.675,397.127c0,0,38.415-2.865,59.629,9.748c21.214,12.613,26.948,31.534,26.948,31.534l-34.975-3.44
	L249.675,397.127z"/>
<path fill="#5997C1" d="M282.93,469.371c0,0,55.042,2.866,61.923,2.293c6.88-0.573-18.276,10.678-18.276,10.678L282.93,469.371z"/>
<path fill="#5997C1" d="M718.109,398.848c0,0-38.414-2.866-59.628,9.748c-21.215,12.613-26.95,31.535-26.95,31.535l34.977-3.441
	L718.109,398.848z"/>
<path fill="#5997C1" d="M681.457,469.371c0,0-55.043,2.866-61.923,2.293c-6.88-0.573,18.276,10.678,18.276,10.678L681.457,469.371z"
	/>
<path fill="#ACD2E5" d="M476.725,701.293c-40.422-0.43-113.955-24.081-113.955-24.081s84.284,10.32,114.385,10.751
	s112.234-6.021,112.234-6.021S517.146,701.724,476.725,701.293z"/>
<path fill="#ACD2E5" d="M480.613,742.002c-32.648-0.327-92.042-18.348-92.042-18.348s68.077,7.862,92.39,8.19
	c24.312,0.327,90.654-4.585,90.654-4.585S513.263,742.33,480.613,742.002z"/>
<path fill="#ACD2E5" d="M478.445,649.691c-40.422-0.431-113.955-24.081-113.955-24.081s84.283,10.32,114.385,10.751
	c30.1,0.429,112.234-6.021,112.234-6.021S518.867,650.121,478.445,649.691z"/>
<circle cx="569.896" cy="336.638" r="29.528"/>
<path fill="#EBD472" d="M665.36,608.696"/>
<path fill="#5997C1" d="M335.667,520"/>
</svg>
