<?xml version="1.0" encoding="utf-8"?>
<!-- Generator: Adobe Illustrator 16.0.0, SVG Export Plug-In . SVG Version: 6.00 Build 0)  -->
<!DOCTYPE svg PUBLIC "-//W3C//DTD SVG 1.1//EN" "http://www.w3.org/Graphics/SVG/1.1/DTD/svg11.dtd">
<svg version="1.1" id="Layer_1" xmlns="http://www.w3.org/2000/svg" xmlns:xlink="http://www.w3.org/1999/xlink" x="0px" y="0px"
	 width="960px" height="960px" viewBox="0 0 960 960" enable-background="new 0 0 960 960" xml:space="preserve">
<g>
	<path fill="#7F1414" d="M494.705,392.985c-0.031,29.708-9.818,50.768-22.887,50.753l-50.542-0.054
		c-13.079-0.016-21.237-21.096-21.206-50.798l0.356-337.082c0.032-29.702,8.238-53.775,21.316-53.764l50.542,0.056
		c13.073,0.013,22.81,24.108,22.775,53.811L494.705,392.985z"/>
	<g>
		<path fill="#7F1414" d="M588.975,710.529c8.324,28.508,3.662,50.438-8.892,54.1l-48.523,14.154
			c-12.56,3.658-28.201-12.343-36.527-40.861L400.656,414.32c-8.322-28.513-4.94-54.586,7.616-58.248l48.52-14.147
			c12.555-3.664,29.481,16.482,37.796,44.996L588.975,710.529z"/>
		<g>
			<path fill="#BF8162" d="M593.38,801.229c1.431,4.901-6.438,11.282-12.981,13.204l-24.609,7.216
				c-6.549,1.931-16.47,0.765-17.906-4.14l-16.514-56.26c-1.439-4.912,7.138-8.302,13.691-10.217l24.603-7.232
				c6.556-1.919,15.76-3.737,17.202,1.153L593.38,801.229z"/>
		</g>
		<path fill="#F4AE87" d="M658.36,910.642c3.122,10.623-8.027,14.771-22.952,19.145l-57.71,16.939
			c-14.935,4.382-27.201,7.118-30.325-3.519l-35.424-120.711c-3.126-10.645,6.404-22.736,21.335-27.107l57.707-16.939
			c14.927-4.375,28.82,0.831,31.944,11.47L658.36,910.642z"/>
		<g>
			<path fill="#BF8162" d="M686.234,844.752c5.948,5.411,7.404,15.332,3.1,20.031l-16.18,17.709
				c-4.307,4.714-14.4,4.268-20.35-1.159l-68.28-62.397c-5.952-5.438-1.137-9.828,3.176-14.523l16.173-17.714
				c4.311-4.709,8.13-9.786,14.08-4.347L686.234,844.752z"/>
		</g>
	</g>
</g>
</svg>
