<?xml version="1.0" encoding="utf-8"?>
<!-- Generator: Adobe Illustrator 16.0.0, SVG Export Plug-In . SVG Version: 6.00 Build 0)  -->
<!DOCTYPE svg PUBLIC "-//W3C//DTD SVG 1.1//EN" "http://www.w3.org/Graphics/SVG/1.1/DTD/svg11.dtd">
<svg version="1.1" id="Layer_1" xmlns="http://www.w3.org/2000/svg" xmlns:xlink="http://www.w3.org/1999/xlink" x="0px" y="0px"
	 width="960px" height="960px" viewBox="0 0 960 960" enable-background="new 0 0 960 960" xml:space="preserve">
<g>
	<path fill="#7F1414" d="M430.838,56.867c-0.035-29.703,9.701-53.798,22.774-53.811L504.154,3
		c13.078-0.011,21.284,24.062,21.316,53.764l0.355,337.082c0.031,29.702-8.127,50.782-21.206,50.798l-50.542,0.055
		c-13.068,0.015-22.855-21.045-22.887-50.753L430.838,56.867z"/>
	<g>
		<path fill="#7F1414" d="M431.309,387.881c8.314-28.514,25.241-48.66,37.796-44.996l48.521,14.147
			c12.556,3.662,15.938,29.735,7.615,58.248l-94.377,323.602c-8.326,28.518-23.967,44.52-36.526,40.861l-48.523-14.154
			c-12.554-3.662-17.216-25.592-8.892-54.1L431.309,387.881z"/>
		<g>
			<path fill="#BF8162" d="M349.03,745.913c1.442-4.891,10.646-3.072,17.202-1.153l24.604,7.232
				c6.553,1.915,15.13,5.305,13.69,10.217l-16.514,56.26c-1.437,4.905-11.357,6.071-17.906,4.141l-24.609-7.217
				c-6.543-1.922-14.411-8.303-12.98-13.204L349.03,745.913z"/>
		</g>
		<path fill="#F4AE87" d="M302.962,790.88c3.124-10.639,17.017-15.845,31.943-11.47l57.707,16.938
			c14.932,4.371,24.461,16.463,21.335,27.107l-35.424,120.711c-3.124,10.637-15.39,7.901-30.325,3.52l-57.71-16.939
			c-14.925-4.374-26.074-8.522-22.952-19.146L302.962,790.88z"/>
		<g>
			<path fill="#BF8162" d="M307.943,783.312c5.95-5.438,9.77-0.361,14.08,4.348l16.173,17.714c4.313,4.695,9.128,9.085,3.176,14.522
				l-68.279,62.397c-5.95,5.427-16.043,5.873-20.351,1.159l-16.18-17.709c-4.304-4.699-2.848-14.62,3.1-20.031L307.943,783.312z"/>
		</g>
	</g>
</g>
</svg>
