<?xml version="1.0" encoding="utf-8"?>
<!-- Generator: Adobe Illustrator 16.0.0, SVG Export Plug-In . SVG Version: 6.00 Build 0)  -->
<!DOCTYPE svg PUBLIC "-//W3C//DTD SVG 1.1//EN" "http://www.w3.org/Graphics/SVG/1.1/DTD/svg11.dtd">
<svg version="1.1" id="Layer_1" xmlns="http://www.w3.org/2000/svg" xmlns:xlink="http://www.w3.org/1999/xlink" x="0px" y="0px"
	 width="960px" height="960px" viewBox="0 0 960 960" enable-background="new 0 0 960 960" xml:space="preserve">
<g>
	<g>
		<path fill="#BF8162" d="M428.836,770.12c0-14.286,13.091-27.12,29.431-27.12h61.356c16.335,0,30.213,12.834,30.213,27.12v164.015
			c0,14.287-13.878,25.865-30.213,25.865h-61.356c-16.34,0-29.431-11.578-29.431-25.865V770.12z"/>
	</g>
	<g>
		<path d="M560.401,237.067c114.147,0,206.688,94.308,206.688,210.644c0,116.329-92.541,210.64-206.688,210.64
			c-114.153,0-206.69-94.31-206.69-210.64C353.711,331.375,446.248,237.067,560.401,237.067z"/>
		<path d="M552.563,18.846c144.355,0,261.38,120.163,261.38,268.389c0,148.223-117.024,268.384-261.38,268.384
			c-144.354,0-261.378-120.16-261.378-268.384C291.184,139.009,408.209,18.846,552.563,18.846z"/>
	</g>
	<path fill="#F4AE87" d="M314.836,325.708c0-38.729,36.739-70.708,81.025-70.708h166.352c44.286,0,77.623,31.979,77.623,70.708
		v444.666c0,38.729-33.337,69.626-77.623,69.626H395.861c-44.286,0-81.025-30.896-81.025-69.626V325.708z"/>
	<g>
		<ellipse cx="653.996" cy="340.645" rx="142.262" ry="165.975"/>
		<path d="M476.752,90.551c74.838,0,135.512,63.626,135.512,142.108c0,78.482-60.674,142.107-135.512,142.107
			c-74.843,0-135.516-63.626-135.516-142.107C341.236,154.177,401.909,90.551,476.752,90.551z"/>
		<path d="M359.839,102.757c61.276,0,110.949,52.088,110.949,116.346c0,64.256-49.673,116.344-110.949,116.344
			c-61.27,0-110.944-52.088-110.944-116.344C248.895,154.845,298.568,102.757,359.839,102.757z"/>
		<path d="M658.576,486.5c36.012,0,65.205,30.612,65.205,68.377c0,37.766-29.193,68.374-65.205,68.374
			c-36.014,0-65.204-30.608-65.204-68.374C593.372,517.112,622.564,486.5,658.576,486.5z"/>
	</g>
	<g>
		<path d="M420.595,481.183c18.204,0,32.965,14.762,32.965,32.97c0,18.204-14.761,32.961-32.965,32.961
			s-32.967-14.757-32.967-32.961C387.628,495.943,402.391,481.183,420.595,481.183z"/>
	</g>
	<path fill="#BF8162" d="M300.836,457.99c0-11.646,7.203-21.99,15.536-21.99h32.188c8.327,0,15.276,10.346,15.276,21.99v132.12
		c0,11.64-6.949,19.89-15.276,19.89h-32.188c-8.333,0-15.536-8.25-15.536-19.89V457.99z"/>
	<g>
		<path fill="#F4AE87" d="M573.413,414.029c43.713,0,79.147,35.432,79.147,79.145c0,43.716-35.436,79.149-79.147,79.149
			c-43.711,0-79.147-35.434-79.147-79.149C494.266,449.461,529.701,414.029,573.413,414.029z"/>
		<path fill="#BF8162" d="M574.997,436.189c32.345,0,58.567,26.219,58.567,58.569c0,32.345-26.224,58.568-58.567,58.568
			c-32.349,0-58.57-26.224-58.57-58.568C516.427,462.408,542.648,436.189,574.997,436.189z"/>
	</g>
	<g>
		<path d="M366.175,687.499c21.95,0,43.059,3.062,63.255,8.583c5.437-11.307,8.563-23.819,8.563-37.205
			c0-8.732-1.321-17.877-3.729-24.877H314.836v59.095C331.836,689.441,348.491,687.499,366.175,687.499z"/>
		<path fill="#A52828" d="M314.836,693.094v43.512c10,5.37,23.692,8.4,36.98,8.4c34.304,0,63.748-20.052,77.68-49.031
			c-20.199-5.521-41.372-8.528-63.322-8.528C348.491,687.445,331.836,689.441,314.836,693.094z"/>
	</g>
</g>
</svg>
