<?xml version="1.0" encoding="utf-8"?>
<!-- Generator: Adobe Illustrator 16.0.0, SVG Export Plug-In . SVG Version: 6.00 Build 0)  -->
<!DOCTYPE svg PUBLIC "-//W3C//DTD SVG 1.1//EN" "http://www.w3.org/Graphics/SVG/1.1/DTD/svg11.dtd">
<svg version="1.1" id="Layer_1" xmlns="http://www.w3.org/2000/svg" xmlns:xlink="http://www.w3.org/1999/xlink" x="0px" y="0px"
	 width="960px" height="960px" viewBox="0 0 960 960" enable-background="new 0 0 960 960" xml:space="preserve">
<g>
	<g>
		<path fill="#BF8162" d="M591,934.135C591,948.422,577.909,960,561.569,960h-61.356C483.878,960,470,948.422,470,934.135V770.12
			c0-14.286,13.878-27.12,30.213-27.12h61.356c16.34,0,29.431,12.834,29.431,27.12V934.135z"/>
	</g>
	<g>
		<path d="M666.125,447.711c0,116.33-92.537,210.64-206.69,210.64c-114.149,0-206.69-94.311-206.69-210.64
			c0-116.336,92.541-210.644,206.69-210.644C573.588,237.067,666.125,331.375,666.125,447.711z"/>
		<path d="M728.652,287.235c0,148.224-117.025,268.384-261.378,268.384c-144.355,0-261.38-120.161-261.38-268.384
			c0-148.226,117.024-268.389,261.38-268.389C611.627,18.846,728.652,139.009,728.652,287.235z"/>
	</g>
	<path fill="#F4AE87" d="M705,770.374C705,809.104,668.261,840,623.975,840H457.623C413.337,840,380,809.104,380,770.374V325.708
		C380,286.979,413.337,255,457.623,255h166.352C668.261,255,705,286.979,705,325.708V770.374z"/>
	<g>
		<ellipse cx="365.84" cy="340.645" rx="142.262" ry="165.975"/>
		<path d="M678.6,232.659c0,78.481-60.673,142.107-135.516,142.107c-74.838,0-135.512-63.625-135.512-142.107
			S468.246,90.551,543.084,90.551C617.927,90.551,678.6,154.177,678.6,232.659z"/>
		<path d="M770.941,219.103c0,64.256-49.674,116.344-110.944,116.344c-61.276,0-110.949-52.088-110.949-116.344
			c0-64.258,49.673-116.346,110.949-116.346C721.268,102.757,770.941,154.845,770.941,219.103z"/>
		<path d="M426.464,554.877c0,37.766-29.191,68.374-65.204,68.374c-36.012,0-65.205-30.608-65.205-68.374
			c0-37.765,29.193-68.377,65.205-68.377C397.272,486.5,426.464,517.112,426.464,554.877z"/>
	</g>
	<g>
		<path d="M632.208,514.151c0,18.204-14.763,32.961-32.967,32.961s-32.965-14.757-32.965-32.961
			c0-18.208,14.761-32.968,32.965-32.968S632.208,495.943,632.208,514.151z"/>
	</g>
	<path fill="#BF8162" d="M719,590.11c0,11.64-7.203,19.89-15.536,19.89h-32.188c-8.327,0-15.276-8.25-15.276-19.89V457.99
		c0-11.644,6.949-21.99,15.276-21.99h32.188c8.333,0,15.536,10.346,15.536,21.99V590.11z"/>
	<g>
		<path fill="#F4AE87" d="M525.57,493.174c0,43.717-35.436,79.149-79.147,79.149c-43.713,0-79.148-35.433-79.148-79.149
			c0-43.713,35.435-79.145,79.148-79.145C490.135,414.029,525.57,449.461,525.57,493.174z"/>
		<path fill="#BF8162" d="M503.409,494.76c0,32.345-26.221,58.568-58.57,58.568c-32.345,0-58.568-26.224-58.568-58.568
			c0-32.352,26.223-58.571,58.568-58.571C477.188,436.189,503.409,462.408,503.409,494.76z"/>
	</g>
	<g>
		<path d="M705,693.095V634H585.572c-2.408,7-3.729,16.145-3.729,24.877c0,13.386,3.128,25.898,8.563,37.205
			c20.198-5.521,41.305-8.583,63.255-8.583C671.345,687.499,688,689.441,705,693.095z"/>
		<path fill="#A52828" d="M653.662,687.445c-21.95,0-43.123,3.009-63.322,8.53c13.932,28.979,43.376,49.031,77.68,49.031
			c13.288,0,26.98-3.03,36.98-8.402v-43.51C688,689.441,671.345,687.445,653.662,687.445z"/>
	</g>
</g>
</svg>
