<?xml version="1.0" encoding="utf-8"?>
<!-- Generator: Adobe Illustrator 16.0.0, SVG Export Plug-In . SVG Version: 6.00 Build 0)  -->
<!DOCTYPE svg PUBLIC "-//W3C//DTD SVG 1.1//EN" "http://www.w3.org/Graphics/SVG/1.1/DTD/svg11.dtd">
<svg version="1.1" id="Layer_1" xmlns="http://www.w3.org/2000/svg" xmlns:xlink="http://www.w3.org/1999/xlink" x="0px" y="0px"
	 width="960px" height="960px" viewBox="0 0 960 960" enable-background="new 0 0 960 960" xml:space="preserve">
<g>
	<path fill="#BF8162" d="M497,575.658c0,2.979-2.551,5.342-5.957,5.342h-12.791c-3.405,0-6.252-2.363-6.252-5.342v-34.192
		c0-2.979,2.847-5.466,6.252-5.466h12.791c3.406,0,5.957,2.487,5.957,5.466V575.658z"/>
</g>
<g>
	<ellipse cx="485.751" cy="470.252" rx="43.089" ry="43.913"/>
	<ellipse cx="482.385" cy="434.797" rx="54.49" ry="55.951"/>
</g>
<g>
	<circle fill="#F4AE87" cx="518.038" cy="498.73" r="16.5"/>
	<circle fill="#BF8162" cx="517.708" cy="499.061" r="12.21"/>
</g>
<g>
	<circle fill="#F4AE87" cx="447.038" cy="497.73" r="16.5"/>
	<circle fill="#BF8162" cx="446.708" cy="498.061" r="12.21"/>
</g>
<path fill="#F4AE87" d="M517,538.519c0,8.074-7.715,14.481-16.947,14.481h-34.68c-9.232,0-16.373-6.407-16.373-14.481v-92.7
	c0-8.074,7.141-14.818,16.373-14.818h34.68c9.232,0,16.947,6.744,16.947,14.818V538.519z"/>
<g>
	<ellipse cx="452.239" cy="425.432" rx="29.658" ry="31.101"/>
	<ellipse cx="482.329" cy="426.663" rx="20.39" ry="21.382"/>
	<ellipse cx="513.284" cy="440.594" rx="13.593" ry="14.254"/>
</g>
<g>
	<circle cx="462.641" cy="481.104" r="6.872"/>
	<circle cx="501.897" cy="482.104" r="6.873"/>
</g>
<path fill="#BF8162" d="M489,503.938c0,2.427-1.639,4.062-3.376,4.062h-6.71c-1.737,0-2.914-1.635-2.914-4.062v-27.543
	c0-2.427,1.177-4.395,2.914-4.395h6.71c1.737,0,3.376,1.968,3.376,4.395V503.938z"/>
<g>
	<path d="M497.559,530.697c1.707-2.753,2.711-5.988,2.711-9.467c0-1.82-0.275-3.574-0.778-5.23h-34.444
		c-0.502,1.656-0.778,3.41-0.778,5.23c0,2.79,0.653,5.421,1.786,7.778c4.211-1.151,8.638-1.778,13.214-1.778
		C485.727,527.23,491.892,528.469,497.559,530.697z"/>
	<path fill="#A52828" d="M482.27,539.23c6.463,0,12.113-3.418,15.289-8.533c-5.667-2.229-11.832-3.467-18.29-3.467
		c-4.576,0-9.003,0.627-13.214,1.778C468.959,535.05,475.118,539.23,482.27,539.23z"/>
</g>
</svg>
